<?xml version="1.0" encoding="UTF-8"?> <svg xmlns="http://www.w3.org/2000/svg" width="171" height="45" viewBox="0 0 171 45" fill="none"><path d="M77.37 7.71752C77.37 8.90752 76.593 9.64252 75.34 9.64252C74.073 9.64252 73.303 8.90752 73.303 7.71752V4.77052H74.43V7.71752C74.43 8.35452 74.766 8.73952 75.34 8.73952C75.914 8.73952 76.25 8.35452 76.25 7.71752V4.77052H77.37V7.71752ZM78.1218 9.53052V5.76452H79.1928V6.26152C79.4378 5.84152 79.8228 5.64552 80.2848 5.64552C81.0058 5.64552 81.5448 6.08652 81.5448 7.01752V9.53052H80.4738V7.23452C80.4738 6.75852 80.2848 6.51352 79.8928 6.51352C79.4658 6.51352 79.1928 6.88452 79.1928 7.36752V9.53052H78.1218ZM82.2712 5.38652V4.49052H83.3422V5.38652H82.2712ZM82.2712 9.53052V5.76452H83.3422V9.53052H82.2712ZM85.2592 5.38652L85.7702 4.49052H86.9112L86.1972 5.38652H85.2592ZM85.7492 9.64252C84.6082 9.64252 83.9012 8.88652 83.9012 7.64752C83.9012 6.36652 84.6292 5.64552 85.7492 5.64552C86.8902 5.64552 87.6042 6.41552 87.6042 7.64752C87.6042 8.92152 86.8692 9.64252 85.7492 9.64252ZM85.7492 8.77452C86.2462 8.77452 86.5052 8.38252 86.5052 7.64752C86.5052 6.91952 86.2392 6.51352 85.7492 6.51352C85.2592 6.51352 85.0002 6.91252 85.0002 7.64752C85.0002 8.37552 85.2662 8.77452 85.7492 8.77452ZM89.553 9.53052V4.77052H92.969V5.65952H90.673V6.66052H92.696V7.52852H90.673V8.64152H92.969V9.53052H89.553ZM95.9084 7.92752V5.76452H96.9794V9.53052H95.9084V9.02652C95.6634 9.44652 95.2924 9.64252 94.8374 9.64252C94.1234 9.64252 93.5984 9.20852 93.5984 8.27052V5.76452H94.6694V8.05352C94.6694 8.53652 94.8514 8.77452 95.2294 8.77452C95.6424 8.77452 95.9084 8.41052 95.9084 7.92752ZM97.7068 9.53052V5.76452H98.7778V6.28952C99.0158 5.84152 99.3798 5.64552 99.7648 5.64552C99.9188 5.64552 100.059 5.68752 100.136 5.76452V6.66752C100.01 6.63952 99.8768 6.62552 99.7088 6.62552C99.0648 6.62552 98.7778 6.98952 98.7778 7.58452V9.53052H97.7068ZM102.183 9.64252C101.042 9.64252 100.335 8.88652 100.335 7.64752C100.335 6.36652 101.063 5.64552 102.183 5.64552C103.324 5.64552 104.038 6.41552 104.038 7.64752C104.038 8.92152 103.303 9.64252 102.183 9.64252ZM102.183 8.77452C102.68 8.77452 102.939 8.38252 102.939 7.64752C102.939 6.91952 102.673 6.51352 102.183 6.51352C101.693 6.51352 101.434 6.91252 101.434 7.64752C101.434 8.37552 101.7 8.77452 102.183 8.77452ZM105.675 11.0775H104.604V5.76452H105.675V6.15652C105.906 5.82752 106.228 5.64552 106.62 5.64552C107.593 5.64552 108.202 6.40852 108.202 7.64052C108.202 8.92152 107.579 9.64252 106.62 9.64252C106.221 9.64252 105.899 9.47452 105.675 9.15252V11.0775ZM106.396 6.51352C105.92 6.51352 105.675 6.91252 105.675 7.64052C105.675 8.36852 105.927 8.77452 106.396 8.77452C106.858 8.77452 107.103 8.37552 107.103 7.64052C107.103 6.91252 106.851 6.51352 106.396 6.51352ZM112.316 8.29152C112.12 9.15952 111.42 9.64252 110.496 9.64252C109.327 9.64252 108.606 8.88652 108.606 7.64752C108.606 6.36652 109.334 5.64552 110.454 5.64552C111.581 5.64552 112.288 6.39452 112.288 7.62652V7.86452H109.698C109.754 8.46652 110.034 8.78852 110.496 8.78852C110.846 8.78852 111.084 8.63452 111.196 8.29152H112.316ZM110.454 6.49952C110.055 6.49952 109.803 6.75852 109.719 7.24852H111.182C111.098 6.75852 110.846 6.49952 110.454 6.49952ZM113.926 7.01052H112.855C112.967 6.16352 113.618 5.64552 114.584 5.64552C115.662 5.64552 116.222 6.27552 116.222 7.15052V8.59252C116.222 9.08252 116.264 9.33452 116.327 9.53052H115.221C115.186 9.40452 115.165 9.24352 115.158 9.06152C114.864 9.46752 114.416 9.64252 113.968 9.64252C113.254 9.64252 112.722 9.27852 112.722 8.55752C112.722 8.04652 113.016 7.65452 113.611 7.44452C114.101 7.28352 114.57 7.23452 115.151 7.22752V7.14352C115.151 6.73052 114.948 6.51352 114.535 6.51352C114.171 6.51352 113.975 6.71652 113.926 7.01052ZM113.793 8.48752C113.793 8.73952 113.982 8.90052 114.297 8.90052C114.773 8.90052 115.151 8.51552 115.151 7.99752V7.85052C114.066 7.87152 113.793 8.13752 113.793 8.48752Z" fill="white"></path><path d="M73.546 19V14.24H76.773V14.765H74.19V16.396H76.514V16.921H74.19V19H73.546ZM78.8848 19.084C77.8208 19.084 77.1838 18.356 77.1838 17.145C77.1838 15.885 77.8418 15.192 78.8848 15.192C79.9488 15.192 80.5858 15.934 80.5858 17.145C80.5858 18.398 79.9278 19.084 78.8848 19.084ZM78.8848 18.552C79.5778 18.552 79.9558 18.055 79.9558 17.145C79.9558 16.242 79.5708 15.724 78.8848 15.724C78.1918 15.724 77.8138 16.228 77.8138 17.145C77.8138 18.041 78.1988 18.552 78.8848 18.552ZM81.3787 19V15.283H81.9947V15.787C82.2467 15.395 82.6527 15.192 83.1427 15.192C83.9337 15.192 84.4027 15.654 84.4027 16.515V19H83.7867V16.641C83.7867 16.081 83.5347 15.717 82.9747 15.717C82.3587 15.717 81.9947 16.27 81.9947 16.802V19H81.3787ZM85.8395 16.235C85.8395 17.271 88.2545 16.417 88.2545 17.95C88.2545 18.643 87.6385 19.084 86.7635 19.084C85.8815 19.084 85.2655 18.664 85.1255 17.789H85.7415C85.8255 18.307 86.2105 18.594 86.7845 18.594C87.3445 18.594 87.6385 18.342 87.6385 17.992C87.6385 16.977 85.2515 17.817 85.2515 16.277C85.2515 15.71 85.6925 15.192 86.6025 15.192C87.4075 15.192 88.0025 15.57 88.1215 16.494H87.5055C87.4145 15.913 87.0925 15.696 86.5675 15.696C86.1055 15.696 85.8395 15.927 85.8395 16.235ZM90.4444 19V14.24H93.6714V14.765H91.0884V16.27H93.4124V16.795H91.0884V18.475H93.6714V19H90.4444ZM96.8355 17.481V15.283H97.4515V19H96.8355V18.496C96.5835 18.888 96.1915 19.084 95.7085 19.084C94.9315 19.084 94.4695 18.629 94.4695 17.768V15.283H95.0855V17.642C95.0855 18.202 95.3305 18.559 95.8765 18.559C96.4785 18.559 96.8355 18.013 96.8355 17.481ZM98.4343 19V15.283H99.0503V15.857C99.3023 15.402 99.7013 15.192 100.149 15.192C100.296 15.192 100.429 15.227 100.499 15.283V15.836C100.394 15.801 100.261 15.787 100.114 15.787C99.3723 15.787 99.0503 16.249 99.0503 16.921V19H98.4343ZM102.489 19.084C101.425 19.084 100.788 18.356 100.788 17.145C100.788 15.885 101.446 15.192 102.489 15.192C103.553 15.192 104.19 15.934 104.19 17.145C104.19 18.398 103.532 19.084 102.489 19.084ZM102.489 18.552C103.182 18.552 103.56 18.055 103.56 17.145C103.56 16.242 103.175 15.724 102.489 15.724C101.796 15.724 101.418 16.228 101.418 17.145C101.418 18.041 101.803 18.552 102.489 18.552ZM105.606 20.54H104.99V15.283H105.606V15.745C105.851 15.395 106.208 15.192 106.649 15.192C107.636 15.192 108.231 15.92 108.231 17.131C108.231 18.391 107.622 19.084 106.649 19.084C106.208 19.084 105.851 18.902 105.606 18.559V20.54ZM106.607 15.724C105.956 15.724 105.606 16.221 105.606 17.131C105.606 18.034 105.97 18.552 106.607 18.552C107.251 18.552 107.601 18.048 107.601 17.131C107.601 16.235 107.237 15.724 106.607 15.724ZM112.236 17.789C112.033 18.657 111.41 19.084 110.563 19.084C109.485 19.084 108.834 18.356 108.834 17.145C108.834 15.885 109.485 15.192 110.528 15.192C111.578 15.192 112.208 15.913 112.208 17.096V17.25H109.464C109.499 18.083 109.891 18.552 110.563 18.552C111.088 18.552 111.459 18.3 111.592 17.789H112.236ZM110.528 15.724C109.933 15.724 109.576 16.095 109.485 16.788H111.564C111.48 16.102 111.109 15.724 110.528 15.724ZM115.395 17.481V15.283H116.011V19H115.395V18.496C115.143 18.888 114.751 19.084 114.268 19.084C113.491 19.084 113.029 18.629 113.029 17.768V15.283H113.645V17.642C113.645 18.202 113.89 18.559 114.436 18.559C115.038 18.559 115.395 18.013 115.395 17.481ZM119.788 19.084C118.801 19.084 118.206 18.356 118.206 17.145C118.206 15.885 118.815 15.192 119.788 15.192C120.229 15.192 120.586 15.374 120.831 15.717V13.96H121.447V19H120.831V18.531C120.586 18.881 120.229 19.084 119.788 19.084ZM119.83 18.552C120.481 18.552 120.831 18.055 120.831 17.145C120.831 16.242 120.467 15.724 119.83 15.724C119.186 15.724 118.836 16.228 118.836 17.145C118.836 18.041 119.2 18.552 119.83 18.552ZM125.641 17.789C125.438 18.657 124.815 19.084 123.968 19.084C122.89 19.084 122.239 18.356 122.239 17.145C122.239 15.885 122.89 15.192 123.933 15.192C124.983 15.192 125.613 15.913 125.613 17.096V17.25H122.869C122.904 18.083 123.296 18.552 123.968 18.552C124.493 18.552 124.864 18.3 124.997 17.789H125.641ZM123.933 15.724C123.338 15.724 122.981 16.095 122.89 16.788H124.969C124.885 16.102 124.514 15.724 123.933 15.724ZM73.546 27V22.24H75.1C76.577 22.24 77.501 23.136 77.501 24.627C77.501 26.118 76.577 27 75.1 27H73.546ZM75.1 26.475C76.192 26.475 76.843 25.789 76.843 24.627C76.843 23.451 76.192 22.765 75.1 22.765H74.19V26.475H75.1ZM81.5839 25.789C81.3809 26.657 80.7579 27.084 79.9109 27.084C78.8329 27.084 78.1819 26.356 78.1819 25.145C78.1819 23.885 78.8329 23.192 79.8759 23.192C80.9259 23.192 81.5559 23.913 81.5559 25.096V25.25H78.8119C78.8469 26.083 79.2389 26.552 79.9109 26.552C80.4359 26.552 80.8069 26.3 80.9399 25.789H81.5839ZM79.8759 23.724C79.2809 23.724 78.9239 24.095 78.8329 24.788H80.9119C80.8279 24.102 80.4569 23.724 79.8759 23.724ZM82.8317 24.235C82.8317 25.271 85.2467 24.417 85.2467 25.95C85.2467 26.643 84.6307 27.084 83.7557 27.084C82.8737 27.084 82.2577 26.664 82.1177 25.789H82.7337C82.8177 26.307 83.2027 26.594 83.7767 26.594C84.3367 26.594 84.6307 26.342 84.6307 25.992C84.6307 24.977 82.2437 25.817 82.2437 24.277C82.2437 23.71 82.6847 23.192 83.5947 23.192C84.3997 23.192 84.9947 23.57 85.1137 24.494H84.4977C84.4067 23.913 84.0847 23.696 83.5597 23.696C83.0977 23.696 82.8317 23.927 82.8317 24.235ZM89.1923 25.789C88.9893 26.657 88.3663 27.084 87.5193 27.084C86.4413 27.084 85.7903 26.356 85.7903 25.145C85.7903 23.885 86.4413 23.192 87.4843 23.192C88.5343 23.192 89.1643 23.913 89.1643 25.096V25.25H86.4203C86.4553 26.083 86.8473 26.552 87.5193 26.552C88.0443 26.552 88.4153 26.3 88.5483 25.789H89.1923ZM87.4843 23.724C86.8893 23.724 86.5323 24.095 86.4413 24.788H88.5203C88.4363 24.102 88.0653 23.724 87.4843 23.724ZM89.9851 27V23.283H90.6011V23.787C90.8531 23.395 91.2591 23.192 91.7491 23.192C92.5401 23.192 93.0091 23.654 93.0091 24.515V27H92.3931V24.641C92.3931 24.081 92.1411 23.717 91.5811 23.717C90.9651 23.717 90.6011 24.27 90.6011 24.802V27H89.9851ZM94.7853 27L93.3993 23.283H94.0643L95.0933 26.167L95.1843 26.489L95.2753 26.167L96.3043 23.283H96.9273L95.5413 27H94.7853ZM98.962 27.084C97.898 27.084 97.261 26.356 97.261 25.145C97.261 23.885 97.919 23.192 98.962 23.192C100.026 23.192 100.663 23.934 100.663 25.145C100.663 26.398 100.005 27.084 98.962 27.084ZM98.962 26.552C99.655 26.552 100.033 26.055 100.033 25.145C100.033 24.242 99.648 23.724 98.962 23.724C98.269 23.724 97.891 24.228 97.891 25.145C97.891 26.041 98.276 26.552 98.962 26.552ZM101.456 27V21.96H102.072V27H101.456ZM105.415 25.481V23.283H106.031V27H105.415V26.496C105.163 26.888 104.771 27.084 104.288 27.084C103.511 27.084 103.049 26.629 103.049 25.768V23.283H103.665V25.642C103.665 26.202 103.91 26.559 104.456 26.559C105.058 26.559 105.415 26.013 105.415 25.481ZM107.636 28.54H107.02V23.283H107.636V23.745C107.881 23.395 108.238 23.192 108.679 23.192C109.666 23.192 110.261 23.92 110.261 25.131C110.261 26.391 109.652 27.084 108.679 27.084C108.238 27.084 107.881 26.902 107.636 26.559V28.54ZM108.637 23.724C107.986 23.724 107.636 24.221 107.636 25.131C107.636 26.034 108 26.552 108.637 26.552C109.281 26.552 109.631 26.048 109.631 25.131C109.631 24.235 109.267 23.724 108.637 23.724ZM111.62 24.494H111.004C111.123 23.675 111.662 23.192 112.572 23.192C113.566 23.192 114.049 23.773 114.049 24.641V26.104C114.049 26.531 114.084 26.797 114.182 27H113.531C113.461 26.853 113.44 26.636 113.433 26.412C113.118 26.881 112.614 27.084 112.166 27.084C111.396 27.084 110.878 26.727 110.878 26.02C110.878 25.509 111.158 25.138 111.704 24.956C112.208 24.788 112.719 24.746 113.433 24.739V24.655C113.433 24.053 113.153 23.724 112.516 23.724C111.984 23.724 111.697 24.018 111.62 24.494ZM111.508 26.006C111.508 26.349 111.795 26.552 112.229 26.552C112.915 26.552 113.433 26.013 113.433 25.376V25.201C111.851 25.215 111.508 25.551 111.508 26.006ZM115.059 27V23.283H115.675V23.759C115.913 23.381 116.284 23.192 116.739 23.192C117.25 23.192 117.621 23.416 117.796 23.85C118.041 23.416 118.447 23.192 118.944 23.192C119.7 23.192 120.155 23.654 120.155 24.515V27H119.539V24.641C119.539 24.081 119.315 23.717 118.811 23.717C118.251 23.717 117.915 24.27 117.915 24.802V27H117.299V24.641C117.299 24.081 117.075 23.717 116.571 23.717C116.011 23.717 115.675 24.27 115.675 24.802V27H115.059ZM124.349 25.789C124.146 26.657 123.523 27.084 122.676 27.084C121.598 27.084 120.947 26.356 120.947 25.145C120.947 23.885 121.598 23.192 122.641 23.192C123.691 23.192 124.321 23.913 124.321 25.096V25.25H121.577C121.612 26.083 122.004 26.552 122.676 26.552C123.201 26.552 123.572 26.3 123.705 25.789H124.349ZM122.641 23.724C122.046 23.724 121.689 24.095 121.598 24.788H123.677C123.593 24.102 123.222 23.724 122.641 23.724ZM125.142 27V23.283H125.758V23.787C126.01 23.395 126.416 23.192 126.906 23.192C127.697 23.192 128.166 23.654 128.166 24.515V27H127.55V24.641C127.55 24.081 127.298 23.717 126.738 23.717C126.122 23.717 125.758 24.27 125.758 24.802V27H125.142ZM129.232 25.929V23.773H128.714V23.283H129.232V22.429H129.848V23.283H130.667V23.773H129.848V25.929C129.848 26.377 129.981 26.587 130.527 26.587H130.653V27.028C130.583 27.063 130.429 27.084 130.254 27.084C129.561 27.084 129.232 26.713 129.232 25.929ZM132.711 27V22.24H134.426C135.427 22.24 136.064 22.758 136.064 23.584C136.064 24.13 135.798 24.515 135.35 24.718C135.658 24.858 135.819 25.117 135.938 25.586L136.295 27H135.616L135.315 25.712C135.175 25.117 134.937 25.005 134.363 25.005H133.355V27H132.711ZM134.412 22.765H133.355V24.48H134.398C135.028 24.48 135.399 24.144 135.399 23.619C135.399 23.094 135.028 22.765 134.412 22.765ZM140.223 25.789C140.02 26.657 139.397 27.084 138.55 27.084C137.472 27.084 136.821 26.356 136.821 25.145C136.821 23.885 137.472 23.192 138.515 23.192C139.565 23.192 140.195 23.913 140.195 25.096V25.25H137.451C137.486 26.083 137.878 26.552 138.55 26.552C139.075 26.552 139.446 26.3 139.579 25.789H140.223ZM138.515 23.724C137.92 23.724 137.563 24.095 137.472 24.788H139.551C139.467 24.102 139.096 23.724 138.515 23.724ZM142.338 27.028C141.393 27.028 140.826 26.307 140.826 25.117C140.826 23.871 141.407 23.192 142.338 23.192C142.835 23.192 143.206 23.367 143.451 23.689V23.283H144.067V27.112C144.067 28.148 143.402 28.631 142.548 28.631C141.673 28.631 141.057 28.211 140.924 27.364H141.54C141.617 27.854 142.002 28.12 142.541 28.12C143.087 28.12 143.451 27.826 143.451 27.133V26.496C143.192 26.846 142.814 27.028 142.338 27.028ZM142.45 26.496C143.101 26.496 143.451 26.006 143.451 25.11C143.451 24.235 143.087 23.724 142.45 23.724C141.806 23.724 141.456 24.214 141.456 25.117C141.456 25.992 141.813 26.496 142.45 26.496ZM145.055 22.786V21.96H145.671V22.786H145.055ZM145.055 27V23.283H145.671V27H145.055ZM148.16 27.084C147.096 27.084 146.459 26.356 146.459 25.145C146.459 23.885 147.117 23.192 148.16 23.192C149.224 23.192 149.861 23.934 149.861 25.145C149.861 26.398 149.203 27.084 148.16 27.084ZM148.16 26.552C148.853 26.552 149.231 26.055 149.231 25.145C149.231 24.242 148.846 23.724 148.16 23.724C147.467 23.724 147.089 24.228 147.089 25.145C147.089 26.041 147.474 26.552 148.16 26.552ZM150.654 27V23.283H151.27V23.787C151.522 23.395 151.928 23.192 152.418 23.192C153.209 23.192 153.678 23.654 153.678 24.515V27H153.062V24.641C153.062 24.081 152.81 23.717 152.25 23.717C151.634 23.717 151.27 24.27 151.27 24.802V27H150.654ZM155.227 24.494H154.611C154.73 23.675 155.269 23.192 156.179 23.192C157.173 23.192 157.656 23.773 157.656 24.641V26.104C157.656 26.531 157.691 26.797 157.789 27H157.138C157.068 26.853 157.047 26.636 157.04 26.412C156.725 26.881 156.221 27.084 155.773 27.084C155.003 27.084 154.485 26.727 154.485 26.02C154.485 25.509 154.765 25.138 155.311 24.956C155.815 24.788 156.326 24.746 157.04 24.739V24.655C157.04 24.053 156.76 23.724 156.123 23.724C155.591 23.724 155.304 24.018 155.227 24.494ZM155.115 26.006C155.115 26.349 155.402 26.552 155.836 26.552C156.522 26.552 157.04 26.013 157.04 25.376V25.201C155.458 25.215 155.115 25.551 155.115 26.006ZM158.666 27V21.96H159.282V27H158.666Z" fill="white"></path><path d="M77.37 37.7844C77.37 38.9744 76.593 39.7094 75.34 39.7094C74.073 39.7094 73.303 38.9744 73.303 37.7844V34.8374H74.43V37.7844C74.43 38.4214 74.766 38.8064 75.34 38.8064C75.914 38.8064 76.25 38.4214 76.25 37.7844V34.8374H77.37V37.7844ZM78.1218 39.5974V35.8314H79.1928V36.3284C79.4378 35.9084 79.8228 35.7124 80.2848 35.7124C81.0058 35.7124 81.5448 36.1534 81.5448 37.0844V39.5974H80.4738V37.3014C80.4738 36.8254 80.2848 36.5804 79.8928 36.5804C79.4658 36.5804 79.1928 36.9514 79.1928 37.4344V39.5974H78.1218ZM83.3212 37.0774H82.2502C82.3622 36.2304 83.0132 35.7124 83.9792 35.7124C85.0572 35.7124 85.6172 36.3424 85.6172 37.2174V38.6594C85.6172 39.1494 85.6592 39.4014 85.7222 39.5974H84.6162C84.5812 39.4714 84.5602 39.3104 84.5532 39.1284C84.2592 39.5344 83.8112 39.7094 83.3632 39.7094C82.6492 39.7094 82.1172 39.3454 82.1172 38.6244C82.1172 38.1134 82.4112 37.7214 83.0062 37.5114C83.4962 37.3504 83.9652 37.3014 84.5462 37.2944V37.2104C84.5462 36.7974 84.3432 36.5804 83.9302 36.5804C83.5662 36.5804 83.3702 36.7834 83.3212 37.0774ZM83.1882 38.5544C83.1882 38.8064 83.3772 38.9674 83.6922 38.9674C84.1682 38.9674 84.5462 38.5824 84.5462 38.0644V37.9174C83.4612 37.9384 83.1882 38.2044 83.1882 38.5544ZM87.699 39.5974V35.8314H88.77V36.3074C89.008 35.9014 89.365 35.7124 89.799 35.7124C90.247 35.7124 90.625 35.9154 90.814 36.3354C91.073 35.9084 91.472 35.7124 91.941 35.7124C92.641 35.7124 93.159 36.1534 93.159 37.0844V39.5974H92.088V37.3014C92.088 36.8254 91.927 36.5804 91.584 36.5804C91.213 36.5804 90.961 36.9514 90.961 37.4344V39.5974H89.897V37.3014C89.897 36.8254 89.729 36.5804 89.386 36.5804C89.015 36.5804 88.77 36.9514 88.77 37.4344V39.5974H87.699ZM94.9355 37.0774H93.8645C93.9765 36.2304 94.6275 35.7124 95.5935 35.7124C96.6715 35.7124 97.2315 36.3424 97.2315 37.2174V38.6594C97.2315 39.1494 97.2735 39.4014 97.3365 39.5974H96.2305C96.1955 39.4714 96.1745 39.3104 96.1675 39.1284C95.8735 39.5344 95.4255 39.7094 94.9775 39.7094C94.2635 39.7094 93.7315 39.3454 93.7315 38.6244C93.7315 38.1134 94.0255 37.7214 94.6205 37.5114C95.1105 37.3504 95.5795 37.3014 96.1605 37.2944V37.2104C96.1605 36.7974 95.9575 36.5804 95.5445 36.5804C95.1805 36.5804 94.9845 36.7834 94.9355 37.0774ZM94.8025 38.5544C94.8025 38.8064 94.9915 38.9674 95.3065 38.9674C95.7825 38.9674 96.1605 38.5824 96.1605 38.0644V37.9174C95.0755 37.9384 94.8025 38.2044 94.8025 38.5544ZM97.9939 39.5974V35.8314H99.0649V36.3284C99.3099 35.9084 99.6949 35.7124 100.157 35.7124C100.878 35.7124 101.417 36.1534 101.417 37.0844V39.5974H100.346V37.3014C100.346 36.8254 100.157 36.5804 99.7649 36.5804C99.3379 36.5804 99.0649 36.9514 99.0649 37.4344V39.5974H97.9939ZM105.692 38.3584C105.496 39.2264 104.796 39.7094 103.872 39.7094C102.703 39.7094 101.982 38.9534 101.982 37.7144C101.982 36.4334 102.71 35.7124 103.83 35.7124C104.957 35.7124 105.664 36.4614 105.664 37.6934V37.9314H103.074C103.13 38.5334 103.41 38.8554 103.872 38.8554C104.222 38.8554 104.46 38.7014 104.572 38.3584H105.692ZM103.83 36.5664C103.431 36.5664 103.179 36.8254 103.095 37.3154H104.558C104.474 36.8254 104.222 36.5664 103.83 36.5664ZM106.252 39.5974V35.8314H107.323V36.3564C107.561 35.9084 107.925 35.7124 108.31 35.7124C108.464 35.7124 108.604 35.7544 108.681 35.8314V36.7344C108.555 36.7064 108.422 36.6924 108.254 36.6924C107.61 36.6924 107.323 37.0564 107.323 37.6514V39.5974H106.252ZM110.132 37.0774H109.061C109.173 36.2304 109.824 35.7124 110.79 35.7124C111.868 35.7124 112.428 36.3424 112.428 37.2174V38.6594C112.428 39.1494 112.47 39.4014 112.533 39.5974H111.427C111.392 39.4714 111.371 39.3104 111.364 39.1284C111.07 39.5344 110.622 39.7094 110.174 39.7094C109.46 39.7094 108.928 39.3454 108.928 38.6244C108.928 38.1134 109.222 37.7214 109.817 37.5114C110.307 37.3504 110.776 37.3014 111.357 37.2944V37.2104C111.357 36.7974 111.154 36.5804 110.741 36.5804C110.377 36.5804 110.181 36.7834 110.132 37.0774ZM109.999 38.5544C109.999 38.8064 110.188 38.9674 110.503 38.9674C110.979 38.9674 111.357 38.5824 111.357 38.0644V37.9174C110.272 37.9384 109.999 38.2044 109.999 38.5544ZM115.924 39.7094C114.958 39.7094 114.349 38.9534 114.349 37.7144C114.349 36.4334 114.972 35.7124 115.924 35.7124C116.323 35.7124 116.645 35.8804 116.876 36.2024V34.5574H117.947V39.5974H116.876V39.1984C116.645 39.5274 116.316 39.7094 115.924 39.7094ZM116.155 38.8414C116.631 38.8414 116.876 38.4494 116.876 37.7144C116.876 36.9864 116.624 36.5804 116.155 36.5804C115.693 36.5804 115.448 36.9794 115.448 37.7144C115.448 38.4424 115.7 38.8414 116.155 38.8414ZM122.215 38.3584C122.019 39.2264 121.319 39.7094 120.395 39.7094C119.226 39.7094 118.505 38.9534 118.505 37.7144C118.505 36.4334 119.233 35.7124 120.353 35.7124C121.48 35.7124 122.187 36.4614 122.187 37.6934V37.9314H119.597C119.653 38.5334 119.933 38.8554 120.395 38.8554C120.745 38.8554 120.983 38.7014 121.095 38.3584H122.215ZM120.353 36.5664C119.954 36.5664 119.702 36.8254 119.618 37.3154H121.081C120.997 36.8254 120.745 36.5664 120.353 36.5664ZM123.764 36.6434V35.8314H124.219V35.7824C124.219 34.9004 124.639 34.4454 125.374 34.4454C125.647 34.4454 125.843 34.4944 125.948 34.5434V35.2224H125.871C125.402 35.2224 125.29 35.4184 125.29 35.7894V35.8314H125.948V36.6434H125.29V39.5974H124.219V36.6434H123.764ZM129.885 38.3584C129.689 39.2264 128.989 39.7094 128.065 39.7094C126.896 39.7094 126.175 38.9534 126.175 37.7144C126.175 36.4334 126.903 35.7124 128.023 35.7124C129.15 35.7124 129.857 36.4614 129.857 37.6934V37.9314H127.267C127.323 38.5334 127.603 38.8554 128.065 38.8554C128.415 38.8554 128.653 38.7014 128.765 38.3584H129.885ZM128.023 36.5664C127.624 36.5664 127.372 36.8254 127.288 37.3154H128.751C128.667 36.8254 128.415 36.5664 128.023 36.5664ZM130.444 39.5974V35.8314H131.515V36.3564C131.753 35.9084 132.117 35.7124 132.502 35.7124C132.656 35.7124 132.796 35.7544 132.873 35.8314V36.7344C132.747 36.7064 132.614 36.6924 132.446 36.6924C131.802 36.6924 131.515 37.0564 131.515 37.6514V39.5974H130.444ZM134.684 39.5974V34.8374H138.1V35.7264H135.804V36.7274H137.827V37.5954H135.804V38.7084H138.1V39.5974H134.684ZM141.039 37.9944V35.8314H142.11V39.5974H141.039V39.0934C140.794 39.5134 140.423 39.7094 139.968 39.7094C139.254 39.7094 138.729 39.2754 138.729 38.3374V35.8314H139.8V38.1204C139.8 38.6034 139.982 38.8414 140.36 38.8414C140.773 38.8414 141.039 38.4774 141.039 37.9944ZM142.838 39.5974V35.8314H143.909V36.3564C144.147 35.9084 144.511 35.7124 144.896 35.7124C145.05 35.7124 145.19 35.7544 145.267 35.8314V36.7344C145.141 36.7064 145.008 36.6924 144.84 36.6924C144.196 36.6924 143.909 37.0564 143.909 37.6514V39.5974H142.838ZM147.314 39.7094C146.173 39.7094 145.466 38.9534 145.466 37.7144C145.466 36.4334 146.194 35.7124 147.314 35.7124C148.455 35.7124 149.169 36.4824 149.169 37.7144C149.169 38.9884 148.434 39.7094 147.314 39.7094ZM147.314 38.8414C147.811 38.8414 148.07 38.4494 148.07 37.7144C148.07 36.9864 147.804 36.5804 147.314 36.5804C146.824 36.5804 146.565 36.9794 146.565 37.7144C146.565 38.4424 146.831 38.8414 147.314 38.8414ZM150.806 41.1444H149.735V35.8314H150.806V36.2234C151.037 35.8944 151.359 35.7124 151.751 35.7124C152.724 35.7124 153.333 36.4754 153.333 37.7074C153.333 38.9884 152.71 39.7094 151.751 39.7094C151.352 39.7094 151.03 39.5414 150.806 39.2194V41.1444ZM151.527 36.5804C151.051 36.5804 150.806 36.9794 150.806 37.7074C150.806 38.4354 151.058 38.8414 151.527 38.8414C151.989 38.8414 152.234 38.4424 152.234 37.7074C152.234 36.9794 151.982 36.5804 151.527 36.5804ZM154.948 37.0774H153.877C153.989 36.2304 154.64 35.7124 155.606 35.7124C156.684 35.7124 157.244 36.3424 157.244 37.2174V38.6594C157.244 39.1494 157.286 39.4014 157.349 39.5974H156.243C156.208 39.4714 156.187 39.3104 156.18 39.1284C155.886 39.5344 155.438 39.7094 154.99 39.7094C154.276 39.7094 153.744 39.3454 153.744 38.6244C153.744 38.1134 154.038 37.7214 154.633 37.5114C155.123 37.3504 155.592 37.3014 156.173 37.2944V37.2104C156.173 36.7974 155.97 36.5804 155.557 36.5804C155.193 36.5804 154.997 36.7834 154.948 37.0774ZM154.815 38.5544C154.815 38.8064 155.004 38.9674 155.319 38.9674C155.795 38.9674 156.173 38.5824 156.173 38.0644V37.9174C155.088 37.9384 154.815 38.2044 154.815 38.5544Z" fill="white"></path><path d="M66.2487 0H0V45H66.2487V0Z" fill="white"></path><path d="M64.9743 1.23389H1.27344V43.7016H64.9743V1.23389Z" fill="#074EA2"></path><path d="M31.7669 10.4868L33.111 9.50595L34.4553 10.4868L33.9437 8.90062L35.3091 7.9195H33.626L33.111 6.31396L32.596 7.9213L30.9141 7.9195L32.2784 8.90062L31.7669 10.4868Z" fill="#FFF200"></path><path d="M24.8113 12.3558L26.1554 11.3749L27.4988 12.3558L26.988 10.7696L28.3525 9.78849H26.6695L26.1545 8.18115L25.6397 9.79028L23.9575 9.78849L25.3218 10.7696L24.8113 12.3558Z" fill="#FFF200"></path><path d="M21.0651 13.2825L20.5501 14.8916L18.8682 14.8898L20.2325 15.8707L19.721 17.4571L21.0651 16.4763L22.4092 17.4571L21.8978 15.8707L23.2621 14.8898H21.5801L21.0651 13.2825Z" fill="#FFF200"></path><path d="M19.1978 23.4235L20.541 24.4044L20.0305 22.8182L21.3948 21.8373H19.7129L19.1978 20.2297L18.6828 21.8407L17 21.8373L18.3652 22.8182L17.8538 24.4044L19.1978 23.4235Z" fill="#FFF200"></path><path d="M21.5801 28.8053L21.0651 27.198L20.5501 28.8071L18.8682 28.8053L20.2325 29.7862L19.721 31.3727L21.0651 30.39L22.4092 31.3727L21.8978 29.7862L23.2621 28.8053H21.5801Z" fill="#FFF200"></path><path d="M26.6798 33.9049L26.1647 32.2993L25.6506 33.9067L23.9678 33.9049L25.3321 34.8857L24.8215 36.4722L26.1656 35.4911L27.5088 36.4722L26.9983 34.8857L28.3626 33.9049H26.6798Z" fill="#FFF200"></path><path d="M33.627 35.7526L33.112 34.1453L32.5978 35.7544L30.915 35.7526L32.2793 36.7335L31.7688 38.3199L33.1129 37.3388L34.4561 38.3199L33.9446 36.7335L35.3098 35.7526H33.627Z" fill="#FFF200"></path><path d="M40.5739 33.9049L40.0597 32.2993L39.5438 33.9067L37.8628 33.9049L39.2262 34.8857L38.7157 36.4722L40.0597 35.4911L41.4038 36.4722L40.8915 34.8857L42.2567 33.9049H40.5739Z" fill="#FFF200"></path><path d="M45.6753 28.8053L45.1593 27.198L44.6434 28.8071L42.9624 28.8053L44.3276 29.7862L43.8153 31.3727L45.1593 30.39L46.5037 31.3727L45.9911 29.7862L47.3563 28.8053H45.6753Z" fill="#FFF200"></path><path d="M49.2048 21.8175H47.522L47.006 20.2102L46.4919 21.8193L44.8091 21.8175L46.1743 22.7984L45.6635 24.3849L47.006 23.4022L48.3501 24.3849L47.8396 22.7984L49.2048 21.8175Z" fill="#FFF200"></path><path d="M43.8153 17.4361L45.1593 16.4552L46.5037 17.4361L45.9913 15.8498L47.3565 14.8705H45.6753L45.1593 13.2632L44.6436 14.8723L42.9624 14.8705L44.3276 15.8498L43.8153 17.4361Z" fill="#FFF200"></path><path d="M40.0793 8.18286L39.5651 9.79199L37.8823 9.7884L39.2457 10.7711L38.7352 12.3575L40.0811 11.3748L41.4234 12.3575L40.9128 10.7711L42.278 9.7884H40.5934L40.0793 8.18286Z" fill="#FFF200"></path></svg> 