<?xml version="1.0" encoding="UTF-8" standalone="no"?>
<!-- Created with Inkscape (http://www.inkscape.org/) -->

<svg
   width="140.94014mm"
   height="45.310413mm"
   viewBox="0 0 140.94014 45.310414"
   version="1.1"
   id="svg1"
   xmlns="http://www.w3.org/2000/svg"
   xmlns:svg="http://www.w3.org/2000/svg">
  <defs
     id="defs1" />
  <g
     id="layer1"
     transform="translate(-14.525695,-81.81111)">
    <g
       id="g286"
       style="display:inline"
       transform="translate(2.884028,-54.97847)">
      <path
         id="path88"
         style="display:inline;fill:#2e9548;fill-opacity:1;stroke-width:0;stroke-linejoin:round;paint-order:fill markers stroke"
         d="m 34.384981,158.9226 c -0.454144,0 -6.12887,8.61658 -4.833813,13.59555 0.440195,1.69239 1.247703,2.72563 1.874304,3.63957 0.151491,0.22096 0.302751,0.43925 0.423747,0.65319 0.263536,0.46598 0.485594,0.90403 0.713651,1.34514 0.671263,1.29835 1.173914,2.39766 1.466061,3.08353 0.03187,0.0748 0.08394,0.19063 0.110587,0.25425 4.53e-4,9.3e-4 0.0015,0.003 0.0021,0.005 4.4e-5,1.5e-4 -3.7e-5,3.7e-4 0,5.2e-4 0.125371,0.29937 0.199471,0.48421 0.199471,0.48421 0,0 0.192219,-0.37895 0.243913,-0.48421 4.5e-5,-9e-5 -4.4e-5,-4.3e-4 0,-5.2e-4 0.0042,-0.008 0.0153,-0.0289 0.01964,-0.0377 v -5.2e-4 c 0.02518,-0.0512 0.07635,-0.15058 0.111104,-0.22066 0.311369,-0.6278 0.815636,-1.61799 1.649512,-3.11557 0.260724,-0.46824 0.522281,-0.93974 0.805636,-1.41852 0.111587,-0.18854 0.230268,-0.36708 0.347782,-0.54777 0.575526,-0.88492 1.20003,-1.77625 1.700155,-3.63957 1.333644,-4.96878 -4.732136,-13.59555 -4.833814,-13.59555 z" />
      <path
         id="path69"
         style="display:inline;fill:#ffa84b;fill-opacity:1;stroke-width:0;stroke-linejoin:round;paint-order:fill markers stroke"
         d="m 33.998958,136.78958 c -12.237593,0.01 -22.193457,9.85597 -22.338171,22.09271 -0.0069,0.0881 -0.01327,0.17635 -0.01912,0.26458 v 22.09271 h 17.454748 l -0.127124,-0.36535 -1.630391,-4.67362 c -3.451179,-2.31883 -5.521859,-6.20329 -5.523177,-10.36112 7.91e-4,-2.47808 0.738864,-4.89989 2.120284,-6.9572 2.318419,-3.45541 6.205692,-5.52896 10.366809,-5.52989 4.161849,2.4e-4 8.050049,2.07388 10.368876,5.52989 1.380872,2.05749 2.118401,4.47928 2.118734,6.9572 -3.17e-4,4.17278 -2.084866,8.06965 -5.555734,10.38593 l -1.689302,4.53667 -0.177767,0.47749 h 16.856335 v -20.24889 c 0.06932,-0.61253 0.113288,-1.22765 0.131775,-1.84382 1.06e-4,-12.34743 -10.009342,-22.35711 -22.356775,-22.35729 z" />
      <g
         id="g116-1-1-2"
         style="display:inline"
         transform="translate(-0.54587933,-94.410776)">
        <path
           d="m 133.76909,255.63071 c -0.94827,0 -1.83082,0.26231 -2.64738,0.78723 -0.81657,0.52492 -1.53435,1.26414 -2.15336,2.21678 -0.61901,0.95263 -1.10632,2.06069 -1.46192,3.32438 -0.34243,1.24426 -0.51367,2.59554 -0.51367,4.05366 0,1.53588 0.15779,2.9452 0.47387,4.22834 0.32926,1.28315 0.79071,2.40075 1.38338,3.35339 0.59267,0.93319 1.29054,1.65256 2.09393,2.15803 0.8034,0.50549 1.68595,0.75825 2.64739,0.75825 0.64535,0 1.28398,-0.11676 1.91616,-0.35013 0.64535,-0.25275 1.22475,-0.59296 1.73839,-1.02066 0.52682,-0.42772 0.94197,-0.90385 1.24489,-1.42877 l -1.06712,-2.56616 c -0.30292,0.44717 -0.63892,0.83587 -1.00769,1.16636 -0.36877,0.33051 -0.76349,0.58328 -1.18494,0.75826 -0.42145,0.17497 -0.84954,0.2624 -1.28416,0.2624 -0.7112,0 -1.36329,-0.16533 -1.95595,-0.49583 -0.5795,-0.34995 -1.07975,-0.84517 -1.5012,-1.48675 -0.42146,-0.64157 -0.75099,-1.41018 -0.98806,-2.30449 -0.22389,-0.91376 -0.33589,-1.92407 -0.33589,-3.03224 0,-1.04984 0.11846,-2.01241 0.35553,-2.88729 0.23707,-0.89431 0.56013,-1.66217 0.96842,-2.30373 0.42145,-0.64157 0.90877,-1.13757 1.46192,-1.48752 0.56633,-0.36939 1.17211,-0.55381 1.81746,-0.55381 0.40828,0 0.80998,0.097 1.2051,0.2914 0.40828,0.19443 0.803,0.48613 1.18494,0.87497 0.39511,0.36939 0.78388,0.83597 1.16582,1.39977 l 1.42213,-2.18701 c -0.32926,-0.68046 -0.75682,-1.28374 -1.28364,-1.80866 -0.51364,-0.54436 -1.09356,-0.96171 -1.73891,-1.25332 -0.63218,-0.31107 -1.28375,-0.46685 -1.95544,-0.46685 z"
           style="font-weight:500;font-size:19.7556px;font-family:Lexend;-inkscape-font-specification:'Lexend Medium';fill:#200752;fill-opacity:1;stroke:#000000;stroke-width:0"
           id="path102-3-8-5" />
        <path
           d="m 112.84376,260.42626 v 15.88711 h 2.1332 l -0.008,-11.61755 c 0,0 5.06831,7.56985 7.71265,11.61755 h 1.95595 v -18.03863 h -2.13372 l -0.003,13.77306 -7.74097,-11.62154 z"
           style="font-weight:500;font-size:19.7556px;font-family:Lexend;-inkscape-font-specification:'Lexend Medium';fill:#200752;fill-opacity:1;stroke:#000000;stroke-width:0"
           id="path103-8-6-2" />
        <path
           d="m 108.34491,269.42755 v -2.33202 h -5.49504 l -0.003,-4.14956 h 6.57893 v -2.33262 h -8.71213 v 15.70002 h 8.71213 v -2.33263 h -6.57893 l 0.004,-4.55319 z"
           style="font-weight:500;font-size:19.7556px;font-family:Lexend;-inkscape-font-specification:'Lexend Medium';fill:#200752;fill-opacity:1;stroke:#000000;stroke-width:0"
           id="path104-7-2-0" />
        <path
           d="m 90.756734,258.74247 v 2.51013 h 2.232422 v 12.55064 h -2.232422 v 2.51013 h 6.598564 v -2.51013 H 95.122876 V 261.2526 h 2.232422 v -2.51013 z"
           style="font-weight:500;font-size:19.7556px;font-family:Lexend;-inkscape-font-specification:'Lexend Medium';fill:#200752;fill-opacity:1;stroke:#000000;stroke-width:0"
           id="path105-4-1-3" />
        <path
           d="m 83.644507,255.44362 c -0.948269,0 -1.830302,0.26466 -2.646867,0.79429 -0.816565,0.52962 -1.534348,1.27546 -2.153357,2.23664 -0.619009,0.96117 -1.106325,2.07915 -1.461926,3.35417 -0.342431,1.25541 -0.513664,2.61879 -0.513664,4.08998 0,1.54964 0.157783,2.97159 0.473873,4.26622 0.32926,1.29465 0.790193,2.42226 1.382861,3.38344 0.592668,0.94156 1.291052,1.66736 2.094446,2.17737 0.803394,0.51001 1.685428,0.76504 2.646867,0.76504 0.64535,0 1.2845,-0.11781 1.916679,-0.35327 0.645349,-0.25501 1.224749,-0.59827 1.738395,-1.0298 0.526816,-0.43155 0.941449,-0.91195 1.244368,-1.44158 l -1.066601,-2.58914 c -0.302919,0.45116 -0.638919,0.84335 -1.007691,1.1768 -0.368771,0.33348 -0.764004,0.5885 -1.185457,0.76506 -0.421453,0.17653 -0.849536,0.26475 -1.284159,0.26475 -0.711202,0 -1.362768,-0.16681 -1.955436,-0.50027 -0.579498,-0.35309 -1.080265,-0.85275 -1.501718,-1.50008 -0.421452,-0.64732 -0.750469,-1.42281 -0.987536,-2.32514 -0.223897,-0.92194 -0.335897,-1.94131 -0.335897,-3.0594 0,-1.05925 0.118467,-2.03045 0.355534,-2.91316 0.237067,-0.90233 0.559617,-1.67706 0.967899,-2.32438 0.421453,-0.64732 0.90877,-1.14775 1.461927,-1.50084 0.566327,-0.3727 1.17211,-0.55877 1.81746,-0.55877 0.408282,0 0.809982,0.0978 1.205094,0.294 0.408283,0.19617 0.803516,0.49049 1.185458,0.88281 0.395112,0.3727 0.783878,0.84346 1.16582,1.41232 l 1.422135,-2.20661 c -0.32926,-0.68655 -0.757343,-1.29525 -1.284159,-1.82487 -0.513646,-0.54924 -1.093046,-0.97032 -1.738395,-1.26455 -0.632179,-0.31386 -1.284263,-0.47103 -1.955953,-0.47103 z"
           style="font-weight:500;font-size:19.7556px;font-family:Lexend;-inkscape-font-specification:'Lexend Medium';fill:#200752;fill-opacity:1;stroke:#000000;stroke-width:0"
           id="path106-2-4-7" />
        <path
           d="m 68.54375,253.49367 c -0.880048,0 -1.699162,0.15938 -2.45842,0.47915 -0.759256,0.29837 -1.423834,0.73577 -1.993277,1.31122 -0.552187,0.55412 -0.992414,1.2146 -1.320274,1.98184 -0.310605,0.76724 -0.46582,1.59851 -0.46582,2.49363 0,0.91641 0.112179,1.74768 0.336501,2.49361 0.224326,0.72462 0.569323,1.37465 1.03523,1.95009 0.465908,0.57542 1.044405,1.05468 1.734639,1.4383 0.690234,0.38363 1.500875,0.69295 2.432691,0.92738 0.586698,0.12784 1.104533,0.28734 1.553185,0.47916 0.448652,0.17049 0.836689,0.37349 1.16455,0.60792 0.345117,0.23445 0.621657,0.48976 0.828726,0.76684 0.224327,0.27704 0.388014,0.58637 0.491549,0.92736 0.103532,0.34099 0.155047,0.70346 0.155047,1.0871 0,0.57542 -0.155214,1.08691 -0.46582,1.53447 -0.310605,0.44755 -0.73321,0.79874 -1.26814,1.05447 -0.534932,0.25576 -1.130373,0.38384 -1.786095,0.38384 -1.069862,0 -1.99268,-0.28756 -2.769193,-0.86299 -0.776513,-0.57543 -1.587832,-1.60969 -2.433368,-3.10156 l -1.915414,2.71772 c 0.534932,0.95907 1.138846,1.76857 1.811824,2.42924 0.690234,0.63938 1.449363,1.11947 2.277643,1.43915 0.845536,0.31969 1.760558,0.47916 2.744141,0.47916 1.363211,0 2.536472,-0.27709 3.520055,-0.8312 0.983584,-0.57543 1.742713,-1.38493 2.277644,-2.42924 0.534932,-1.0443 0.802321,-2.28074 0.802321,-3.70866 0,-0.76724 -0.138269,-1.48088 -0.414364,-2.14158 -0.258837,-0.66068 -0.646874,-1.25755 -1.164549,-1.79035 -0.517675,-0.53282 -1.147684,-0.99113 -1.889685,-1.37475 -0.742003,-0.40494 -1.587212,-0.73518 -2.536284,-0.99095 -0.672977,-0.17048 -1.251474,-0.36219 -1.734637,-0.57531 -0.483164,-0.23442 -0.871202,-0.49059 -1.16455,-0.76766 -0.276094,-0.29835 -0.482821,-0.62862 -0.620868,-0.99092 -0.138048,-0.38362 -0.207181,-0.79926 -0.207181,-1.24681 0,-0.61806 0.137591,-1.15048 0.413686,-1.59804 0.293349,-0.46886 0.690536,-0.83134 1.190955,-1.08709 0.50042,-0.25575 1.087389,-0.38383 1.760366,-0.38383 0.586699,0 1.138424,0.12817 1.656099,0.38383 0.517676,0.23443 0.99247,0.59691 1.423866,1.08709 0.431396,0.46888 0.819433,1.05446 1.16455,1.75776 l 1.967548,-2.39745 c -0.396884,-0.85251 -0.897773,-1.56614 -1.501727,-2.14157 -0.603955,-0.59676 -1.293949,-1.04461 -2.070462,-1.343 -0.776513,-0.29836 -1.630873,-0.44737 -2.562688,-0.44737 z"
           style="font-weight:500;font-size:19.7556px;font-family:Lexend;-inkscape-font-specification:'Lexend Medium';fill:#200752;fill-opacity:1;stroke:#000000;stroke-width:0"
           id="path107-7-6-2" />
        <path
           d="m 109.50696,251.29514 c -0.41769,0 -0.80453,0.076 -1.16013,0.22841 -0.34996,0.1524 -0.65714,0.36679 -0.92243,0.64337 -0.25964,0.27093 -0.46302,0.59278 -0.60978,0.96531 -0.14111,0.36689 -0.21187,0.77052 -0.21187,1.21078 0,0.44027 0.0708,0.84652 0.21187,1.21905 0.14676,0.36689 0.35014,0.68874 0.60978,0.96532 0.26529,0.27093 0.57247,0.4827 0.92243,0.6351 0.3556,0.1524 0.74244,0.22841 1.16013,0.22841 0.41769,0 0.8014,-0.076 1.15135,-0.22841 0.3556,-0.1524 0.6633,-0.36679 0.92294,-0.64337 0.26529,-0.27658 0.46868,-0.59843 0.60979,-0.96532 0.14675,-0.37253 0.22014,-0.77615 0.22014,-1.21078 0,-0.43462 -0.0734,-0.83562 -0.22014,-1.20251 -0.14111,-0.37253 -0.3445,-0.697 -0.60979,-0.97358 -0.25964,-0.27658 -0.56734,-0.49097 -0.92294,-0.64337 -0.34995,-0.1524 -0.73366,-0.22841 -1.15135,-0.22841 z m 0,0.88883 c 0.28787,0 0.55048,0.0535 0.78755,0.16072 0.24271,0.10724 0.45134,0.25978 0.62632,0.45733 0.17498,0.19191 0.31074,0.42046 0.40669,0.68575 0.1016,0.25964 0.15245,0.5448 0.15245,0.85524 0,0.31045 -0.0508,0.59823 -0.15245,0.86352 -0.096,0.25964 -0.23171,0.48819 -0.40669,0.68574 -0.17498,0.19191 -0.38361,0.34183 -0.62632,0.44907 -0.23707,0.10725 -0.49968,0.16071 -0.78755,0.16071 -0.28786,0 -0.5531,-0.0535 -0.79581,-0.16071 -0.23707,-0.10724 -0.4457,-0.25716 -0.62632,-0.44907 -0.17498,-0.19191 -0.31074,-0.42045 -0.4067,-0.68574 -0.096,-0.26529 -0.14366,-0.55307 -0.14366,-0.86352 0,-0.31609 0.0477,-0.60387 0.14366,-0.86351 0.096,-0.26529 0.23172,-0.49383 0.4067,-0.68575 0.18062,-0.19191 0.38925,-0.34182 0.62632,-0.44906 0.24271,-0.10725 0.50795,-0.16072 0.79581,-0.16072 z"
           style="font-weight:500;font-size:8.46667px;font-family:Lexend;-inkscape-font-specification:'Lexend Medium';fill:#200752;fill-opacity:1;stroke:#200752;stroke-width:0;stroke-opacity:1"
           id="path108-7-2-9" />
        <path
           d="m 101.87022,251.37989 v 0.88005 h 1.65933 v 5.0462 h 0.91416 v -5.0462 h 1.71049 v -0.88005 z"
           style="font-weight:500;font-size:8.46667px;font-family:Lexend;-inkscape-font-specification:'Lexend Medium';fill:#200752;fill-opacity:1;stroke:#200752;stroke-width:0;stroke-opacity:1"
           id="path109-9-9-7" />
        <path
           d="m 143.49479,236.55017 h 9.63289 l -0.0321,-3.8915 h -12.53672 v 43.82358 h 12.54888 l 9.7e-4,-3.61087 h -9.61392 l 0.0109,-16.45144 h 7.54563 v -4.54632 h -7.54382 z"
           style="font-weight:500;font-size:22.5151px;font-family:Lexend;-inkscape-font-specification:'Lexend Medium';fill:#200752;fill-opacity:1;stroke:#000000;stroke-width:0"
           id="path110-3-1-5" />
        <path
           d="m 130.86643,232.52327 c -1.14076,0 -2.20655,0.25242 -3.19722,0.75647 -0.99066,0.50404 -1.86122,1.21326 -2.61172,2.12799 -0.7355,0.89609 -1.31347,1.95062 -1.73375,3.16404 -0.40527,1.21344 -0.60771,2.5204 -0.60771,3.92052 0,1.41877 0.20244,2.74431 0.60771,3.97641 0.42028,1.21343 1.00598,2.27758 1.75648,3.19232 0.75051,0.91474 1.62107,1.63292 2.61173,2.15563 0.99067,0.50404 2.05646,0.75646 3.19722,0.75646 0.99067,0 1.90604,-0.20565 2.7466,-0.61634 0.85558,-0.42937 1.59839,-1.02648 2.22881,-1.79187 0.64543,-0.76539 1.14871,-1.67065 1.50895,-2.71608 0.36024,-1.06408 0.54002,-2.24034 0.54002,-3.52844 0,-0.16802 -0.007,-0.33588 -0.0222,-0.50389 0,-0.18668 -0.008,-0.37375 -0.0227,-0.56044 -0.015,-0.20535 -0.0377,-0.41035 -0.0677,-0.61571 h -6.97941 v 2.99629 h 4.48034 v 0 0.16776 c 0,0.57871 -0.11229,1.12967 -0.33744,1.65239 -0.22516,0.50404 -0.54041,0.95186 -0.94568,1.34389 -0.40528,0.39203 -0.87095,0.7002 -1.3963,0.92422 -0.52535,0.20535 -1.08066,0.30785 -1.66605,0.30785 -0.78052,0 -1.52333,-0.18643 -2.2288,-0.55979 -0.69047,-0.37338 -1.30604,-0.88719 -1.8464,-1.54057 -0.52535,-0.65339 -0.93797,-1.40938 -1.23817,-2.26811 -0.3002,-0.8774 -0.45062,-1.80124 -0.45062,-2.77198 0,-1.00809 0.14269,-1.93193 0.42788,-2.772 0.28519,-0.85873 0.68287,-1.60575 1.19321,-2.24047 0.52535,-0.63472 1.12599,-1.12932 1.80144,-1.48401 0.69046,-0.35469 1.441,-0.53216 2.25154,-0.53216 0.49534,0 0.99089,0.0935 1.48622,0.28022 0.49533,0.18668 0.97543,0.45704 1.44074,0.81174 0.48032,0.3547 0.94548,0.80252 1.39578,1.3439 l 1.57613,-2.0438 c -0.39026,-0.65339 -0.89302,-1.23191 -1.50844,-1.73595 -0.61541,-0.50404 -1.30567,-0.89613 -2.07119,-1.17615 -0.7505,-0.28002 -1.5237,-0.42034 -2.31924,-0.42034 z"
           style="font-weight:500;font-size:22.5151px;font-family:Lexend;-inkscape-font-specification:'Lexend Medium';fill:#200752;fill-opacity:1;stroke:#000000;stroke-width:0"
           id="path111-1-5-3" />
        <path
           d="m 106.47102,232.65867 v 16.32155 h 6.16913 c 1.12576,0 2.14673,-0.19419 3.06235,-0.58281 0.91561,-0.38861 1.68881,-0.94076 2.31924,-1.65581 0.64543,-0.73059 1.14046,-1.59321 1.48569,-2.58806 0.34524,-1.01041 0.5178,-2.12162 0.5178,-3.3341 0,-1.21248 -0.17256,-2.31623 -0.5178,-3.31108 -0.34523,-0.99486 -0.84026,-1.85747 -1.48569,-2.58808 -0.64544,-0.73059 -1.42637,-1.29019 -2.34198,-1.67882 -0.9006,-0.38861 -1.91385,-0.58279 -3.03961,-0.58279 z m 2.43189,2.42485 h 3.62511 c 0.79553,0 1.50073,0.13176 2.11615,0.39601 0.61541,0.26426 1.14083,0.64516 1.57613,1.14259 0.43529,0.49743 0.76548,1.10398 0.99063,1.81904 0.22515,0.6995 0.33797,1.49223 0.33797,2.37828 0,0.88604 -0.11282,1.68678 -0.33797,2.40183 -0.22515,0.71506 -0.55534,1.32108 -0.99063,1.8185 -0.42029,0.48188 -0.94571,0.85478 -1.57613,1.11903 -0.61542,0.26426 -1.32062,0.39657 -2.11615,0.39657 h -3.62511 c 0.004,0.24947 0,0 0,0 v -11.47185 c 0,0 0,-0.3607 0,0 z"
           style="font-weight:500;font-size:22.5151px;font-family:Lexend;-inkscape-font-specification:'Lexend Medium';fill:#200752;fill-opacity:1;stroke:#000000;stroke-width:0"
           id="path112-9-0-4" />
        <path
           d="m 95.123393,232.65867 v 2.35845 h 2.544547 v 11.79172 h -2.544547 v 2.35846 h 7.520467 v -2.35846 h -2.54454 v -11.79172 h 2.54454 v -2.35845 z"
           style="font-weight:500;font-size:22.5151px;font-family:Lexend;-inkscape-font-specification:'Lexend Medium';fill:#200752;fill-opacity:1;stroke:#000000;stroke-width:0"
           id="path113-8-3-3" />
        <path
           d="m 80.061439,232.65867 v 18.37562 h 2.431376 v -6.90449 l 3.597197,-0.0191 3.337264,6.92361 2.949691,0.0264 -3.667994,-7.36338 c 0.169355,-0.12817 0.416272,-0.25272 0.59583,-0.37414 0.750504,-0.52503 1.315998,-1.17023 1.7663,-2.02778 0.450302,-0.85755 0.675411,-1.78522 0.675411,-2.78278 0,-1.10257 -0.225109,-2.09169 -0.675411,-2.96674 -0.450302,-0.89254 -1.058148,-1.59209 -1.823661,-2.09961 -0.750504,-0.52503 -1.576248,-0.78755 -2.476852,-0.78755 z m 2.431376,2.34146 h 3.872632 c 0.555372,0 1.050922,0.14512 1.486214,0.43563 0.450302,0.29051 0.795435,0.69716 1.035596,1.22008 0.255171,0.50355 0.382406,1.09413 0.382406,1.77199 0,0.60039 -0.09736,1.15216 -0.292489,1.65571 -0.195131,0.48419 -0.465054,0.87169 -0.810286,1.1622 -0.345231,0.27114 -0.735696,0.40669 -1.170988,0.40669 h -4.503085 z"
           style="font-weight:500;font-size:22.5151px;font-family:Lexend;-inkscape-font-specification:'Lexend Medium';fill:#200752;fill-opacity:1;stroke:#000000;stroke-width:0"
           id="path98" />
        <path
           d="m 64.099964,232.65867 -0.02643,19.50205 h 7.454395 c 0.825553,0 1.561151,-0.12052 2.206583,-0.36193 0.645433,-0.26003 1.193009,-0.63165 1.643311,-1.11457 0.465312,-0.48292 0.810445,-1.077 1.035596,-1.78279 0.240161,-0.72439 0.360184,-1.55112 0.360184,-2.4798 0,-0.91012 -0.1499,-1.71838 -0.450101,-2.42418 -0.285192,-0.7058 -0.690594,-1.29095 -1.215947,-1.7553 -0.346807,-0.31878 -0.736384,-0.56654 -1.161686,-0.75583 -0.213828,0.12127 0,0 0,0 0,0 0.945184,-0.69644 1.274341,-1.222 0.480322,-0.74294 0.720369,-1.64362 0.720369,-2.70232 0,-1.05871 -0.179777,-1.95047 -0.540018,-2.67484 -0.345232,-0.74295 -0.863448,-1.30006 -1.553911,-1.67153 -0.690463,-0.37147 -1.538356,-0.55696 -2.54403,-0.55696 z m 3.059761,2.89736 h 3.737756 c 0.840564,0 1.486014,0.22246 1.936316,0.66822 0.450302,0.44578 0.675411,1.08702 0.675411,1.92285 0,0.50149 -0.105085,0.94705 -0.315226,1.33709 -0.195131,0.39005 -0.472783,0.69666 -0.833024,0.91954 -0.345232,0.22288 -0.742907,0.33443 -1.193209,0.33443 h -4.008024 z m 0,8.07949 h 4.120679 c 0.615412,0 1.14805,0.11149 1.598352,0.33444 0.450302,0.20431 0.795434,0.51091 1.035595,0.91953 0.255172,0.40862 0.382923,0.90071 0.382923,1.4765 0,0.61293 -0.120024,1.14199 -0.360185,1.58776 -0.225151,0.42719 -0.555345,0.75229 -0.990637,0.97517 -0.420282,0.22289 -0.938498,0.33444 -1.55391,0.33444 H 67.1333 Z"
           style="font-weight:500;font-size:22.5151px;font-family:Lexend;-inkscape-font-specification:'Lexend Medium';fill:#200752;fill-opacity:1;stroke:#000000;stroke-width:0"
           id="path116-0-9-1" />
        <path
           style="fill:none;fill-opacity:1;stroke:#200752;stroke-width:0.5;stroke-linecap:butt;stroke-linejoin:round;stroke-dasharray:none;stroke-opacity:1;paint-order:fill markers stroke"
           d="M 100.05278,254.57973 H 88.344965"
           id="path151-2-2-3" />
        <path
           style="display:inline;fill:none;fill-opacity:1;stroke:#200752;stroke-width:0.5;stroke-linecap:butt;stroke-linejoin:round;stroke-dasharray:none;stroke-opacity:1;paint-order:fill markers stroke"
           d="M 126.0481,254.56515 H 114.34028"
           id="path151-8-8-9-2" />
      </g>
    </g>
  </g>
</svg>
