<?xml version="1.0" encoding="UTF-8"?> <svg xmlns="http://www.w3.org/2000/svg" id="Capa_1" viewBox="0 0 1350 1350"><defs><style>.cls-1,.cls-2,.cls-3,.cls-4,.cls-5{stroke-width:0px;}.cls-2{fill:#616a72;}.cls-3{fill:#bce3f9;}.cls-4{fill:#fff;}.cls-5{fill:#00abe8;}</style></defs><rect class="cls-1" x="782" y="720" width="52" height="99"></rect><path class="cls-2" d="m610.05,1008.21c0-5.41,2.11-10.68,8.31-10.68s8.7,5.03,8.7,10.44-2.34,10.49-8.44,10.49-8.57-5.08-8.57-10.24m21.42-24.61h-4.54v14.23h-.13c-2.02-3.28-6.11-4.36-8.95-4.36-8.44,0-12.61,6.58-12.61,14.41s4.21,14.55,12.75,14.55c3.81,0,7.27-1.37,8.8-4.38h.13v3.73h4.54v-38.19Z"></path><path class="cls-2" d="m641.79,1005.32c.31-4.24,3.15-7.79,7.9-7.79,4.49,0,7.77,3.48,8,7.79h-15.9Zm15.81,7.72c-.85,3.59-3.46,5.39-7.18,5.39-6.06,0-8.8-4.27-8.62-9.07h20.7c.26-6.73-2.74-15.87-12.52-15.87-7.54,0-13.03,6.08-13.03,14.39.28,8.49,4.44,14.57,13.29,14.57,6.2,0,10.6-3.32,11.81-9.41h-4.44Z"></path><path class="cls-2" d="m682.83,1021.79h5.07v-16.32h12.44c4.9,0,5.8,3.19,6.34,6.92.76,3.75-.05,7.86,1.39,9.4h5.66c-2.12-2.62-1.94-6.8-2.25-10.53-.36-3.73-1.26-7.01-5.7-7.86v-.11c4.57-1.3,6.64-5.1,6.64-9.68,0-6.12-4.44-10.01-11.63-10.01h-17.96v38.19Zm5.07-20.58v-13.34h12.62c4.76,0,6.78,2.81,6.78,6.53,0,5.55-4.04,6.8-8.84,6.8h-10.56Z"></path><path class="cls-2" d="m722.07,1005.32c.28-4.24,3.1-7.79,7.85-7.79s7.77,3.48,8,7.79h-15.85Zm15.71,7.72c-.75,3.59-3.37,5.39-7.14,5.39-6.06,0-8.75-4.27-8.57-9.07h20.65c.31-6.73-2.69-15.87-12.52-15.87-7.49,0-13.03,6.08-13.03,14.39.32,8.49,4.49,14.57,13.29,14.57,6.24,0,10.6-3.32,11.85-9.41h-4.54Z"></path><path class="cls-2" d="m770.92,1003.03c-.63-6.58-5.66-9.54-11.95-9.54-8.75,0-13.06,6.53-13.06,14.86s4.54,14.1,12.98,14.1c6.96,0,11.18-4.02,12.21-10.75h-4.67c-.59,4.18-3.23,6.73-7.59,6.73-5.79,0-8.08-5-8.08-10.08,0-5.63,2.02-10.82,8.62-10.82,3.72,0,6.15,2.02,6.83,5.5h4.72Z"></path><path class="cls-2" d="m779.5,1005.32c.31-4.24,3.15-7.79,7.9-7.79,4.49,0,7.77,3.48,8,7.79h-15.9Zm15.81,7.72c-.8,3.59-3.46,5.39-7.23,5.39-6.01,0-8.75-4.27-8.57-9.07h20.7c.26-6.73-2.74-15.87-12.52-15.87-7.54,0-13.03,6.08-13.03,14.39.28,8.49,4.44,14.57,13.29,14.57,6.2,0,10.6-3.32,11.85-9.41h-4.49Z"></path><path class="cls-2" d="m804.74,1021.8h4.53v-12.3c0-7,2.69-11.18,10.02-11.18v-4.83c-4.9-.13-7.95,2.07-10.15,6.47h-.08v-5.81h-4.31v27.66Z"></path><path class="cls-2" d="m845.23,1003.03c-.62-6.58-5.65-9.54-11.94-9.54-8.8,0-13.07,6.53-13.07,14.86s4.54,14.1,12.98,14.1c6.96,0,11.18-4.02,12.21-10.75h-4.67c-.58,4.18-3.23,6.73-7.59,6.73-5.78,0-8.08-5-8.08-10.08,0-5.63,2.03-10.82,8.62-10.82,3.74,0,6.15,2.02,6.83,5.5h4.72Z"></path><path class="cls-2" d="m874.95,1018.16c-.58.23-.98.29-1.34.29-1.44,0-1.44-.97-1.44-3.12v-14.26c0-6.47-5.39-7.59-10.42-7.59-6.15,0-11.45,2.42-11.72,9.27h4.59c.18-4.06,3.05-5.23,6.91-5.23,2.88,0,6.11.63,6.11,4.6,0,3.41-4.26,3.1-9.29,4.06-4.72.9-9.39,2.22-9.39,8.51,0,5.5,4.13,7.74,9.16,7.74,3.87,0,7.23-1.37,9.75-4.29,0,3.01,1.48,4.29,3.86,4.29,1.44,0,2.48-.29,3.23-.76v-3.53Zm-7.36-5.99c0,2.54-2.47,6.29-8.43,6.29-2.79,0-5.35-1.08-5.35-4.07,0-3.37,2.56-4.47,5.53-4.98,3.09-.56,6.5-.58,8.25-1.86v4.62Z"></path><path class="cls-2" d="m897.4,1008.21c0-5.41,2.07-10.68,8.26-10.68s8.77,5.03,8.77,10.44-2.39,10.49-8.49,10.49-8.54-5.08-8.54-10.24m21.37-24.61h-4.53v14.23h-.09c-2.06-3.28-6.11-4.36-8.98-4.36-8.44,0-12.62,6.58-12.62,14.41s4.22,14.55,12.75,14.55c3.77,0,7.33-1.37,8.85-4.38h.09v3.73h4.53v-38.19Z"></path><path class="cls-2" d="m929.16,1005.32c.26-4.24,3.09-7.79,7.9-7.79,4.49,0,7.72,3.48,7.94,7.79h-15.84Zm15.76,7.72c-.81,3.59-3.46,5.39-7.18,5.39-6.06,0-8.8-4.27-8.57-9.07h20.69c.23-6.73-2.73-15.87-12.52-15.87-7.54,0-13.02,6.08-13.02,14.39.26,8.49,4.44,14.57,13.29,14.57,6.19,0,10.55-3.32,11.8-9.41h-4.49Z"></path><rect class="cls-2" x="969.65" y="983.61" width="4.59" height="38.19"></rect><path class="cls-2" d="m982.27,989.54h3.18c0,2.47-.72,5.19-3.1,5.19v2.67c4.1,0,5.89-3.61,5.89-7.86v-5.93h-5.97v5.93Z"></path><path class="cls-2" d="m1009.97,988.19h.1l6.37,17.85h-12.93l6.47-17.85Zm-17.64,33.61h5.25l4.27-11.52h16.2l4.18,11.52h5.62l-14.96-38.19h-5.62l-14.94,38.19Z"></path><path class="cls-2" d="m1031.08,1021.79h4.58v-27.66h-4.58v27.66Zm0-32.64h4.58v-5.54h-4.58v5.54Z"></path><path class="cls-2" d="m1066.59,994.14h-4.31v3.95h-.05c-1.65-3.05-4.75-4.6-8.22-4.6-9.6,0-12.84,8.08-12.84,14.61,0,7.54,4.13,14.03,12.4,14.03,3.49,0,7.09-1.66,8.62-5.03h.09v1.82c0,6.22-2.34,10.48-8.26,10.48-3,0-7-1.17-7.18-4.49h-4.57c.26,6.04,6.29,8.13,11.45,8.13,8.75,0,12.88-4.62,12.88-13.6v-25.3Zm-12.8,23.98c-5.96,0-7.76-5.54-7.76-10.53,0-5.32,2.34-10.05,8.17-10.05s7.85,5.03,7.85,9.88c0,5.21-2.24,10.71-8.26,10.71"></path><path class="cls-2" d="m1096.32,994.14h-4.54v15.65c0,4.96-2.69,8.66-8.22,8.66-3.46,0-5.62-2.2-5.62-5.57v-18.75h-4.54v18.21c0,5.95,2.25,10.1,9.52,10.1,4,0,7.05-1.62,8.98-5.03h.13v4.38h4.27v-27.66Z"></path><path class="cls-2" d="m1127.71,1018.16c-.64.23-1.03.29-1.44.29-1.44,0-1.44-.97-1.44-3.12v-14.26c0-6.47-5.39-7.59-10.33-7.59-6.19,0-11.49,2.42-11.76,9.27h4.58c.18-4.06,3.02-5.23,6.87-5.23,2.87,0,6.15.63,6.15,4.6,0,3.41-4.26,3.1-9.29,4.06-4.72.9-9.39,2.22-9.39,8.51,0,5.5,4.13,7.74,9.16,7.74,3.86,0,7.23-1.37,9.75-4.29,0,3.01,1.47,4.29,3.86,4.29,1.39,0,2.47-.29,3.28-.76v-3.53Zm-7.41-5.99c0,2.54-2.47,6.29-8.44,6.29-2.78,0-5.34-1.08-5.34-4.07,0-3.37,2.56-4.47,5.52-4.98,3.05-.56,6.46-.58,8.26-1.86v4.62Z"></path><rect class="cls-2" x="607.71" y="920.26" width="5.08" height="38.23"></rect><path class="cls-2" d="m620.6,958.49h4.54v-15.65c0-4.96,2.69-8.69,8.17-8.69,3.51,0,5.66,2.2,5.66,5.59v18.75h4.54v-18.21c0-5.95-2.25-10.12-9.52-10.12-4,0-7.05,1.62-9.03,5.03h-.09v-4.4h-4.26v27.7Z"></path><path class="cls-2" d="m648.57,949.75c.28,6.85,5.53,9.36,11.72,9.36,5.62,0,11.77-2.14,11.77-8.74,0-5.34-4.49-6.82-9.03-7.88-4.22-1.01-9.07-1.55-9.07-4.8,0-2.78,3.2-3.5,5.92-3.5,2.97,0,6.07,1.1,6.38,4.62h4.58c-.4-6.73-5.25-8.66-11.35-8.66-4.82,0-10.33,2.31-10.33,7.88,0,5.28,4.54,6.78,9.03,7.79,4.58,1.01,9.07,1.62,9.07,5.12s-3.86,4.18-6.68,4.18c-3.77,0-7.28-1.33-7.46-5.37h-4.54Z"></path><path class="cls-2" d="m683.41,922.52h-4.53v8.26h-4.72v4.04h4.72v17.6c0,5.07,1.88,6.06,6.55,6.06h3.51v-4.04h-2.12c-2.83,0-3.41-.38-3.41-2.47v-17.15h5.53v-4.04h-5.53v-8.26Z"></path><path class="cls-2" d="m694.23,958.49h4.54v-27.7h-4.54v27.7Zm0-32.67h4.54v-5.56h-4.54v5.56Z"></path><path class="cls-2" d="m712.15,922.52h-4.53v8.26h-4.77v4.04h4.77v17.6c0,5.07,1.83,6.06,6.55,6.06h3.51v-4.04h-2.12c-2.83,0-3.41-.38-3.41-2.47v-17.15h5.53v-4.04h-5.53v-8.26Z"></path><path class="cls-2" d="m745.6,930.78h-4.59v15.65c0,4.96-2.65,8.69-8.17,8.69-3.46,0-5.62-2.22-5.62-5.59v-18.75h-4.53v18.21c0,5.95,2.19,10.13,9.47,10.13,3.99,0,7.09-1.62,9.02-5.05h.09v4.42h4.31v-27.7Z"></path><path class="cls-2" d="m758.76,922.52h-4.59v8.26h-4.72v4.04h4.72v17.6c0,5.07,1.89,6.06,6.6,6.06h3.51v-4.04h-2.11c-2.84,0-3.41-.38-3.41-2.47v-17.15h5.52v-4.04h-5.52v-8.26Z"></path><path class="cls-2" d="m816.86,931.77c-1.16-8.13-7.77-12.41-15.71-12.41-11.81,0-18.1,9-18.1,20.09s5.75,19.91,17.65,19.91c9.65,0,15.58-5.77,16.57-15.31h-5.13c-.49,6.33-4.31,11.07-10.99,11.07-9.16,0-13.02-7.3-13.02-16.03,0-7.99,3.87-15.45,12.98-15.45,5.29,0,9.57,2.72,10.68,8.13h5.08Z"></path><path class="cls-2" d="m847.34,954.83c-.62.23-1.08.29-1.44.29-1.44,0-1.44-1.01-1.44-3.14v-14.23c0-6.47-5.39-7.59-10.42-7.59-6.11,0-11.4,2.4-11.68,9.27h4.54c.23-4.06,3.05-5.28,6.92-5.28,2.88,0,6.14.67,6.14,4.62,0,3.41-4.31,3.08-9.34,4.06-4.71.9-9.34,2.25-9.34,8.49,0,5.52,4.13,7.79,9.16,7.79,3.87,0,7.24-1.32,9.75-4.29,0,3.01,1.48,4.29,3.82,4.29,1.48,0,2.47-.27,3.32-.76v-3.53Zm-7.45-5.97c0,2.47-2.46,6.26-8.44,6.26-2.79,0-5.34-1.08-5.34-4.11,0-3.35,2.55-4.42,5.57-4.96,3.05-.54,6.46-.56,8.21-1.87v4.67Z"></path><path class="cls-2" d="m857.81,922.52h-4.54v8.26h-4.67v4.04h4.67v17.6c0,5.07,1.89,6.06,6.6,6.06h3.51v-4.04h-2.11c-2.83,0-3.46-.38-3.46-2.47v-17.15h5.57v-4.04h-5.57v-8.26Z"></path><path class="cls-2" d="m892.91,954.83c-.63.23-1.03.29-1.44.29-1.39,0-1.39-1.01-1.39-3.14v-14.23c0-6.47-5.44-7.59-10.42-7.59-6.16,0-11.45,2.4-11.72,9.27h4.54c.23-4.06,3.1-5.28,6.92-5.28,2.91,0,6.14.67,6.14,4.62,0,3.41-4.27,3.08-9.29,4.06-4.72.9-9.39,2.25-9.39,8.49,0,5.52,4.13,7.79,9.16,7.79,3.87,0,7.23-1.32,9.7-4.29,0,3.01,1.53,4.29,3.92,4.29,1.44,0,2.47-.27,3.27-.76v-3.53Zm-7.4-5.97c0,2.47-2.51,6.26-8.44,6.26-2.79,0-5.35-1.08-5.35-4.11,0-3.35,2.56-4.42,5.53-4.96,3.05-.54,6.5-.56,8.26-1.87v4.67Z"></path><rect class="cls-2" x="897.37" y="920.26" width="4.58" height="38.23"></rect><path class="cls-2" d="m933.5,954.83c-.62.22-1.03.29-1.39.29-1.48,0-1.48-1.01-1.48-3.14v-14.23c0-6.47-5.39-7.59-10.37-7.59-6.15,0-11.45,2.4-11.67,9.27h4.49c.23-4.06,3.1-5.28,6.92-5.28,2.91,0,6.14.67,6.14,4.63,0,3.41-4.26,3.12-9.29,4.06-4.72.9-9.39,2.25-9.39,8.49,0,5.52,4.18,7.79,9.21,7.79,3.87,0,7.18-1.33,9.7-4.29,0,3.01,1.53,4.29,3.87,4.29,1.44,0,2.46-.27,3.27-.77v-3.52Zm-7.4-5.97c0,2.47-2.48,6.26-8.44,6.26-2.79,0-5.35-1.07-5.35-4.11,0-3.34,2.56-4.42,5.57-4.96,3.02-.54,6.47-.57,8.23-1.87v4.67Zm-6.33-21.87h3.46l-4.63-7.63h-5.83l7.01,7.63Z"></path><path class="cls-3" d="m1058.25,386.19c-55.68-103.85-182.22-144.46-282.65-90.63-100.45,53.81-136.73,181.62-81.05,285.52,55.63,103.9,182.17,144.47,282.6,90.65,100.45-53.79,136.73-181.64,81.1-285.54m-84.15,279.51c-89.71,48.11-203.04,11.43-253.01-81.92-50.07-93.32-17.83-207.97,71.93-256.04,89.75-48.11,203.04-11.41,253.05,81.94,50.03,93.3,17.78,207.96-71.97,256.02"></path><path class="cls-5" d="m1079.62,356.44c-55.68-103.9-182.22-144.47-282.65-90.66-100.44,53.79-136.73,181.64-81.05,285.54,55.63,103.88,182.2,144.47,282.6,90.65,100.45-53.83,136.77-181.67,81.1-285.54m-84.1,279.5c-89.75,48.11-203.04,11.4-253.07-81.92-50.01-93.33-17.81-207.98,71.99-256.09,89.66-48.11,202.99-11.43,253,81.94,50.03,93.35,17.83,207.98-71.92,256.07"></path><path class="cls-3" d="m575.74,519.47c-27.97-52.22-91.6-72.65-142.07-45.6-50.51,27.05-68.79,91.35-40.81,143.61,28.05,52.22,91.63,72.63,142.15,45.55,50.51-27.05,68.74-91.32,40.72-143.57m-42.25,140.52c-45.12,24.2-102.05,5.77-127.24-41.15-25.15-46.97-8.93-104.6,36.19-128.8,45.12-24.18,102.1-5.7,127.25,41.22,25.09,46.94,8.93,104.57-36.2,128.73"></path><path class="cls-5" d="m586.52,504.5c-27.97-52.2-91.65-72.65-142.1-45.57-50.51,27.05-68.75,91.33-40.77,143.57,28.02,52.24,91.63,72.67,142.1,45.58,50.52-27.05,68.79-91.33,40.77-143.57m-42.25,140.54c-45.12,24.2-102.15,5.72-127.29-41.18-25.1-46.94-8.93-104.59,36.2-128.77,45.12-24.18,102.1-5.72,127.24,41.18,25.14,46.96,8.93,104.59-36.15,128.77"></path><path class="cls-3" d="m1143.51,744.76c-19.89-37.04-65.02-51.57-100.86-32.35-35.82,19.24-48.8,64.84-28.95,101.92,19.89,37.07,65.05,51.55,100.89,32.35,35.82-19.22,48.76-64.84,28.92-101.93m-29.99,99.75c-32.07,17.15-72.48,4.09-90.29-29.21-17.88-33.3-6.38-74.25,25.63-91.4,32.05-17.15,72.47-4.09,90.34,29.25,17.82,33.27,6.32,74.2-25.68,91.35"></path><path class="cls-5" d="m1151.14,734.14c-19.89-37.06-65.02-51.55-100.84-32.33-35.87,19.19-48.8,64.81-28.92,101.88,19.84,37.09,65.02,51.57,100.84,32.38,35.84-19.19,48.8-64.84,28.92-101.92m-29.99,99.77c-32.01,17.15-72.47,4.04-90.29-29.27-17.87-33.3-6.37-74.2,25.63-91.35,32.07-17.15,72.48-4.07,90.34,29.25,17.83,33.32,6.33,74.2-25.68,91.37"></path><path class="cls-3" d="m946.53,822.84c-9.52-17.69-31.02-24.61-48.14-15.47-17.11,9.18-23.3,30.94-13.83,48.65,9.52,17.69,31.02,24.61,48.13,15.45,17.11-9.16,23.3-30.94,13.83-48.63m-14.32,47.62c-15.32,8.17-34.58,1.93-43.11-13.99-8.54-15.87-3.05-35.4,12.25-43.6,15.27-8.2,34.58-1.96,43.11,13.94,8.54,15.9,3.02,35.45-12.25,43.64"></path><path class="cls-5" d="m950.17,817.77c-9.48-17.72-31.03-24.63-48.13-15.45-17.16,9.16-23.32,30.96-13.83,48.63,9.52,17.69,31.07,24.6,48.13,15.44,17.1-9.18,23.3-30.94,13.83-48.63m-14.33,47.62c-15.27,8.19-34.57,1.93-43.14-13.96-8.49-15.9-3.01-35.43,12.3-43.62,15.27-8.2,34.58-1.93,43.11,13.96,8.54,15.87,3.05,35.42-12.26,43.62"></path><path class="cls-2" d="m455.45,881.55h32.38v-67.01h10.37c13.7,0,17.83,4.62,22.45,16.62l19.4,50.4h36.05l-25.86-63.11c-3.23-7.16-8.35-15.92-17.15-16.64v-.45c20.61-2.78,33.31-18.5,33.31-37.42,0-44.84-41.36-43.67-76.02-43.67h-34.93v161.28Zm32.38-135.87h10.63c16.17,0,34.17,1.62,34.17,21.01s-18.22,22.43-34.17,22.43h-10.63v-43.44Zm-77.86,106.5c-7.63,3.93-22.63,6.71-35.33,6.71-34.44,0-54.78-24.74-54.78-57.54s20.79-58.46,54.06-58.46c11.59,0,22.68,1.59,34.89,8.55l2.34-27.28c-11.81-4.61-25.91-6.71-36.51-6.71-54.78,0-88.5,30.96-88.5,86.21s36.28,80.66,88.5,80.66c12.21,0,24.91-2.33,36.73-5.1l-1.4-27.05Zm-206.09,29.36h32.33v-161.28h-32.33v161.28Z"></path><path class="cls-5" d="m605.87,881.55h33.54l14.1-37h65.38l13.86,37h35.79l-63.26-161.28h-36.51l-62.91,161.28Zm104.04-62.39h-47.15l23.31-66.56h.45l23.4,66.56Z"></path><path class="cls-4" d="m818.14,756.28c-.86-1.9-2.21-4.22-4.55-4.41v-.12c5.47-.74,8.84-4.91,8.84-9.93,0-11.89-10.97-11.58-20.16-11.58h-9.26v42.78h8.59v-17.77h2.75c3.63,0,4.73,1.23,5.95,4.41l5.14,13.37h9.56l-6.86-16.74Zm-13.73-7.78h-2.82v-11.52h2.82c4.29,0,9.06.43,9.06,5.57s-4.83,5.95-9.06,5.95Z"></path></svg> 