<?xml version="1.0" encoding="UTF-8" standalone="no"?>
<!-- Created with Inkscape (http://www.inkscape.org/) -->

<svg
   width="512"
   height="512"
   viewBox="0 0 512 512"
   version="1.1"
   id="svg1"
   xmlns="http://www.w3.org/2000/svg"
   xmlns:svg="http://www.w3.org/2000/svg">
  <defs
     id="defs1" />
  <g
     id="layer1">
    <g
       id="g163"
       transform="matrix(5.1961237,0,0,5.1961237,-529.9449,-424.49569)">
      <circle
         style="fill:none;fill-opacity:1;stroke:#e69f55;stroke-width:4.62759;stroke-linecap:butt;stroke-linejoin:round;stroke-dasharray:none;stroke-opacity:1;paint-order:fill markers stroke"
         id="path163"
         cx="151.24821"
         cy="131.05798"
         r="46.254513" />
      <g
         id="g162">
        <path
           d="m 124.96172,121.79819 8.40994,25.8916 0.19742,16.29923 a 3.8028649,3.8028649 44.653032 0 0 3.80258,3.75681 h 25.859 a 5.4337409,5.4337409 135.66569 0 0 5.43227,-5.30749 l 0.3343,-14.38396 8.14842,-25.88202 z"
           style="fill:#368455;stroke-width:0;stroke-linejoin:round;paint-order:fill markers stroke"
           id="path158" />
        <g
           id="g161">
          <text
             xml:space="preserve"
             style="font-weight:500;font-size:19.7556px;font-family:Lexend;-inkscape-font-specification:'Lexend Medium';text-align:start;writing-mode:lr-tb;direction:ltr;text-anchor:start;fill:#ffffff;fill-opacity:1;stroke:none;stroke-width:0.1;stroke-linecap:butt;stroke-linejoin:round;stroke-dasharray:none;stroke-opacity:1;paint-order:fill markers stroke"
             x="133.48227"
             y="166.29062"
             id="text158"><tspan
               id="tspan158"
               style="font-style:normal;font-variant:normal;font-weight:500;font-stretch:normal;font-family:Comfortaa;-inkscape-font-specification:'Comfortaa Medium';fill:#ffffff;fill-opacity:1;stroke:none;stroke-width:0.1;stroke-dasharray:none;stroke-opacity:1"
               x="133.48227"
               y="166.29062">B</tspan></text>
          <text
             xml:space="preserve"
             style="font-style:normal;font-variant:normal;font-weight:500;font-stretch:normal;font-size:9.06793px;font-family:Comfortaa;-inkscape-font-specification:'Comfortaa Medium';text-align:start;writing-mode:lr-tb;direction:ltr;text-anchor:start;fill:#ffffff;fill-opacity:1;stroke:none;stroke-width:0;stroke-linecap:butt;stroke-linejoin:round;stroke-dasharray:none;stroke-opacity:1;paint-order:fill markers stroke"
             x="147.96771"
             y="166.02602"
             id="text159"><tspan
               id="tspan159"
               style="fill:#ffffff;fill-opacity:1;stroke:none;stroke-width:0;stroke-dasharray:none;stroke-opacity:1"
               x="147.96771"
               y="166.02602">T</tspan></text>
          <text
             xml:space="preserve"
             style="font-style:normal;font-variant:normal;font-weight:500;font-stretch:normal;font-size:19.7556px;font-family:Comfortaa;-inkscape-font-specification:'Comfortaa Medium';text-align:start;writing-mode:lr-tb;direction:ltr;text-anchor:start;fill:#ffffff;fill-opacity:1;stroke:none;stroke-width:0;stroke-linecap:butt;stroke-linejoin:round;stroke-dasharray:none;stroke-opacity:1;paint-order:fill markers stroke"
             x="155.04582"
             y="166.29062"
             id="text160"><tspan
               id="tspan160"
               style="fill:#ffffff;fill-opacity:1;stroke:none;stroke-width:0;stroke-dasharray:none;stroke-opacity:1"
               x="155.04582"
               y="166.29062">S</tspan></text>
        </g>
      </g>
      <g
         id="g157"
         transform="matrix(1.1134288,0,0,1.1134288,125.02491,72.368135)">
        <circle
           style="fill:#368455;fill-opacity:1;stroke:none;stroke-width:1.754;stroke-linecap:butt;stroke-linejoin:round;stroke-opacity:1;paint-order:fill markers stroke"
           id="circle152"
           cx="23.394815"
           cy="38.973476"
           r="24.077778" />
        <g
           id="g156"
           transform="matrix(1.3643779,0,0,1.3643779,-106.39922,-1.8443461)">
          <path
             style="fill:none;fill-opacity:1;stroke:#ffffff;stroke-width:0.854;stroke-linecap:butt;stroke-linejoin:round;stroke-dasharray:none;stroke-opacity:1;paint-order:fill markers stroke"
             d="m 94.437769,51.103872 c 0,0 0.963701,-2.283777 2.179875,-4.907231 1.719233,-3.708623 3.573836,-8.834381 2.510869,-11.972673 -1.814906,-5.358297 -3.97551,-7.778175 -3.97551,-7.778175"
             id="path152" />
          <path
             d="m 88.621643,16.620043 c -0.419122,0.799205 -0.501478,5.32167 0.372325,6.799394 1.203676,2.035583 2.273259,2.274886 3.71018,2.900145 1.76349,0.76736 1.783422,0.505467 2.7079,1.157722 0.178056,-0.09 0.637106,-0.281752 0.672782,-0.493077 0.274127,-1.62377 0.632381,-2.555586 0.614907,-3.552855 -0.01829,-1.043982 -0.310625,-2.364965 -1.388488,-3.76442 -1.961189,-2.546332 -5.535524,-3.629423 -6.689606,-3.046909 z"
             style="fill:#ffffff;fill-opacity:1;stroke-width:3.22754;stroke-linecap:round;paint-order:fill markers stroke"
             id="path153" />
          <path
             d="m 105.57216,23.782622 c 0.29846,0.777648 0.12061,5.035121 -0.67197,6.369991 -1.09179,1.8388 -1.89627,2.277938 -3.18249,2.495139 -1.44902,0.244692 -1.938438,0.67159 -2.329767,1.58485 -0.140319,-0.09575 -0.316952,-0.732941 -0.246899,-0.933431 0.285866,-0.818134 -0.59327,-2.680106 -0.524989,-3.616714 0.07148,-0.980479 0.381413,-2.204296 1.336147,-3.452825 1.737168,-2.271717 4.710448,-3.066825 5.619968,-2.44701 z"
             style="fill:#ffffff;fill-opacity:1;stroke-width:2.83235;stroke-linecap:round;paint-order:fill markers stroke"
             id="path154" />
          <path
             d="m 86.721006,33.399527 c 0.02326,0.902137 2.154243,4.891921 3.637179,5.75685 2.042763,1.191449 3.093443,0.879444 4.652935,0.725581 1.913918,-0.188834 2.781534,-0.335599 3.356637,0.517066 0.111665,-0.165333 0.327499,-0.861959 0.255723,-1.063897 -0.551538,-1.551638 -1.028661,-3.059385 -1.529695,-3.921832 -0.524501,-0.902846 -1.423266,-1.914122 -3.046292,-2.611296 -2.953121,-1.268521 -6.602323,-0.47336 -7.326488,0.597533 z"
             style="fill:#ffffff;fill-opacity:1;stroke-width:3.22754;stroke-linecap:round;paint-order:fill markers stroke"
             id="path155" />
          <path
             style="display:inline;fill:#ffffff;fill-opacity:1;stroke:none;stroke-width:0.780518;stroke-linecap:butt;stroke-linejoin:round;stroke-opacity:1;paint-order:fill markers stroke"
             d="m 95.78858,51.463821 c 1.324081,0 2.415179,0.357452 2.76785,-0.127226 0.576947,-0.792911 -3.118451,-1.999967 -2.44805,-3.336098 0.123639,-0.246417 -0.08181,-0.400776 -0.449563,0.01658 -0.537312,0.609783 -0.883634,1.251186 -1.596711,1.823598 -0.65803,0.528225 -1.442258,1.046099 -1.134204,1.566522 0.224351,0.379017 1.565965,0.05662 2.860678,0.05662 z"
             id="path156" />
          <path
             style="fill:#368455;fill-opacity:1;stroke:#000000;stroke-width:0;stroke-linecap:butt;stroke-linejoin:round;stroke-dasharray:none;stroke-opacity:1;paint-order:fill markers stroke"
             d="m 147.23878,138.35207 c -0.0989,0.28668 4.73552,1.59222 6.88946,2.79546 2.15395,1.20324 5.83821,4.54316 5.99628,4.33729 0.15807,-0.20587 -1.08196,-2.00999 -2.38539,-3.41436 -1.30342,-1.40437 -3.33296,-2.41911 -5.58927,-2.99343 -1.06397,-0.27082 -4.81215,-1.01164 -4.91108,-0.72496 z"
             id="path157"
             transform="matrix(0.73293478,0,0,0.73293478,-20.056584,-67.81907)" />
          <path
             style="fill:#368455;fill-opacity:1;stroke:#000000;stroke-width:0;stroke-linecap:butt;stroke-linejoin:round;stroke-dasharray:none;stroke-opacity:1;paint-order:fill markers stroke"
             d="m 169.75117,126.72002 c 0.14423,0.17276 -2.46917,2.84784 -3.45353,4.49091 -0.98434,1.64306 -2.29677,5.38394 -2.45423,5.29098 -0.15744,-0.093 0.0873,-1.84566 0.48714,-3.33082 0.39978,-1.48515 1.36176,-2.94694 2.59161,-4.17004 0.57995,-0.57676 2.68476,-2.45379 2.82901,-2.28103 z"
             id="path157-1"
             transform="matrix(0.73293478,0,0,0.73293478,-20.056584,-67.81907)" />
          <path
             style="fill:#368455;fill-opacity:1;stroke:#000000;stroke-width:0;stroke-linecap:butt;stroke-linejoin:round;stroke-dasharray:none;stroke-opacity:1;paint-order:fill markers stroke"
             d="m 149.77954,116.14049 c -0.22803,0.19993 3.32303,3.73065 4.597,5.84353 1.27398,2.11288 2.81754,6.84006 3.05689,6.73965 0.23934,-0.10041 0.057,-2.28198 -0.37868,-4.14783 -0.43563,-1.86585 -1.69502,-3.75335 -3.36972,-5.37081 -0.78971,-0.76271 -3.67744,-3.26445 -3.90549,-3.06454 z"
             id="path157-2"
             transform="matrix(0.73293478,0,0,0.73293478,-20.056584,-67.81907)" />
        </g>
      </g>
    </g>
  </g>
</svg>
