<?xml version="1.0" encoding="UTF-8" standalone="no"?>
<!-- Created with Inkscape (http://www.inkscape.org/) -->

<svg
   width="512"
   height="512"
   viewBox="0 0 512 512"
   version="1.1"
   id="svg1"
   xmlns="http://www.w3.org/2000/svg"
   xmlns:svg="http://www.w3.org/2000/svg">
  <defs
     id="defs1" />
  <g
     id="layer1">
    <g
       id="g4"
       transform="matrix(11.281256,0,0,11.281256,-2838.91,-3905.0818)"
       style="display:inline">
      <circle
         style="display:inline;fill:#ffa84b;fill-opacity:1;stroke:none;stroke-width:0;stroke-linecap:butt;stroke-linejoin:round;stroke-dasharray:none;stroke-opacity:1;paint-order:fill markers stroke"
         id="circle1"
         cx="274.47723"
         cy="368.69016"
         r="22.357098" />
      <g
         id="g3"
         transform="matrix(0.76123403,0,0,0.76123403,65.608461,96.814767)">
        <circle
           style="display:inline;fill:#ffffff;fill-opacity:1;stroke:none;stroke-width:0;stroke-linecap:butt;stroke-linejoin:round;stroke-dasharray:none;stroke-opacity:1;paint-order:fill markers stroke"
           id="circle2"
           cx="274.78146"
           cy="365.94305"
           r="16.404167" />
        <path
           d="m 265.61333,379.49783 2.44739,7.01559 h 13.24726 l 2.61276,-7.01559 z"
           style="display:inline;fill:#ffffff;stroke-width:0;stroke-linejoin:round;paint-order:fill markers stroke"
           id="path2" />
        <path
           d="m 274.8893,356.85676 c -0.59659,0 -8.05126,11.31872 -6.35,17.85938 0.71807,2.76071 2.2025,4.19602 3.01889,5.63953 2.00371,3.54287 3.273,6.79434 3.273,6.79434 0,0 1.7068,-3.53547 3.71744,-6.9328 0.8645,-1.46072 1.89953,-2.55352 2.69067,-5.50107 1.75195,-6.52727 -6.21643,-17.85938 -6.35,-17.85938 z"
           style="display:inline;fill:#2e9548;fill-opacity:1;stroke-width:0;stroke-linejoin:round;paint-order:fill markers stroke"
           id="path3" />
      </g>
    </g>
  </g>
</svg>
